%TF.GenerationSoftware,KiCad,Pcbnew,(5.1.9)-1*%
%TF.CreationDate,2021-06-15T19:58:51-04:00*%
%TF.ProjectId,uBMS,75424d53-2e6b-4696-9361-645f70636258,rev?*%
%TF.SameCoordinates,Original*%
%TF.FileFunction,Legend,Bot*%
%TF.FilePolarity,Positive*%
%FSLAX46Y46*%
G04 Gerber Fmt 4.6, Leading zero omitted, Abs format (unit mm)*
G04 Created by KiCad (PCBNEW (5.1.9)-1) date 2021-06-15 19:58:51*
%MOMM*%
%LPD*%
G01*
G04 APERTURE LIST*
%ADD10C,0.120000*%
%ADD11C,0.150000*%
G04 APERTURE END LIST*
D10*
%TO.C,3.7V 180mAh*%
X102870000Y-79248000D02*
X102870000Y-101248000D01*
X102870000Y-101248000D02*
X84870000Y-101248000D01*
X102870000Y-79248000D02*
X84870000Y-79248000D01*
X84870000Y-79248000D02*
X84870000Y-101248000D01*
%TO.C,J2*%
X81859000Y-89209000D02*
X82309000Y-89609000D01*
X82309000Y-89609000D02*
X82309000Y-88809000D01*
X82309000Y-88809000D02*
X81859000Y-89209000D01*
X76259000Y-84059000D02*
X79059000Y-84059000D01*
X79059000Y-84059000D02*
X79059000Y-83759000D01*
X79059000Y-83759000D02*
X80609000Y-83759000D01*
X76259000Y-91759000D02*
X79059000Y-91759000D01*
X79059000Y-92059000D02*
X79059000Y-91759000D01*
X79059000Y-92059000D02*
X80609000Y-92059000D01*
%TO.C,3.7V 180mAh*%
D11*
X94495333Y-77684380D02*
X93876285Y-77684380D01*
X94209619Y-78065333D01*
X94066761Y-78065333D01*
X93971523Y-78112952D01*
X93923904Y-78160571D01*
X93876285Y-78255809D01*
X93876285Y-78493904D01*
X93923904Y-78589142D01*
X93971523Y-78636761D01*
X94066761Y-78684380D01*
X94352476Y-78684380D01*
X94447714Y-78636761D01*
X94495333Y-78589142D01*
X93447714Y-78589142D02*
X93400095Y-78636761D01*
X93447714Y-78684380D01*
X93495333Y-78636761D01*
X93447714Y-78589142D01*
X93447714Y-78684380D01*
X93066761Y-77684380D02*
X92400095Y-77684380D01*
X92828666Y-78684380D01*
X92162000Y-77684380D02*
X91828666Y-78684380D01*
X91495333Y-77684380D01*
X89876285Y-78684380D02*
X90447714Y-78684380D01*
X90162000Y-78684380D02*
X90162000Y-77684380D01*
X90257238Y-77827238D01*
X90352476Y-77922476D01*
X90447714Y-77970095D01*
X89304857Y-78112952D02*
X89400095Y-78065333D01*
X89447714Y-78017714D01*
X89495333Y-77922476D01*
X89495333Y-77874857D01*
X89447714Y-77779619D01*
X89400095Y-77732000D01*
X89304857Y-77684380D01*
X89114380Y-77684380D01*
X89019142Y-77732000D01*
X88971523Y-77779619D01*
X88923904Y-77874857D01*
X88923904Y-77922476D01*
X88971523Y-78017714D01*
X89019142Y-78065333D01*
X89114380Y-78112952D01*
X89304857Y-78112952D01*
X89400095Y-78160571D01*
X89447714Y-78208190D01*
X89495333Y-78303428D01*
X89495333Y-78493904D01*
X89447714Y-78589142D01*
X89400095Y-78636761D01*
X89304857Y-78684380D01*
X89114380Y-78684380D01*
X89019142Y-78636761D01*
X88971523Y-78589142D01*
X88923904Y-78493904D01*
X88923904Y-78303428D01*
X88971523Y-78208190D01*
X89019142Y-78160571D01*
X89114380Y-78112952D01*
X88304857Y-77684380D02*
X88209619Y-77684380D01*
X88114380Y-77732000D01*
X88066761Y-77779619D01*
X88019142Y-77874857D01*
X87971523Y-78065333D01*
X87971523Y-78303428D01*
X88019142Y-78493904D01*
X88066761Y-78589142D01*
X88114380Y-78636761D01*
X88209619Y-78684380D01*
X88304857Y-78684380D01*
X88400095Y-78636761D01*
X88447714Y-78589142D01*
X88495333Y-78493904D01*
X88542952Y-78303428D01*
X88542952Y-78065333D01*
X88495333Y-77874857D01*
X88447714Y-77779619D01*
X88400095Y-77732000D01*
X88304857Y-77684380D01*
X87542952Y-78684380D02*
X87542952Y-78017714D01*
X87542952Y-78112952D02*
X87495333Y-78065333D01*
X87400095Y-78017714D01*
X87257238Y-78017714D01*
X87162000Y-78065333D01*
X87114380Y-78160571D01*
X87114380Y-78684380D01*
X87114380Y-78160571D02*
X87066761Y-78065333D01*
X86971523Y-78017714D01*
X86828666Y-78017714D01*
X86733428Y-78065333D01*
X86685809Y-78160571D01*
X86685809Y-78684380D01*
X86257238Y-78398666D02*
X85781047Y-78398666D01*
X86352476Y-78684380D02*
X86019142Y-77684380D01*
X85685809Y-78684380D01*
X85352476Y-78684380D02*
X85352476Y-77684380D01*
X84923904Y-78684380D02*
X84923904Y-78160571D01*
X84971523Y-78065333D01*
X85066761Y-78017714D01*
X85209619Y-78017714D01*
X85304857Y-78065333D01*
X85352476Y-78112952D01*
X96337428Y-76327047D02*
X96337428Y-77088952D01*
X101925428Y-76327047D02*
X101925428Y-77088952D01*
X102306380Y-76708000D02*
X101544476Y-76708000D01*
%TO.C,J2*%
X81811380Y-85625666D02*
X82525666Y-85625666D01*
X82668523Y-85578047D01*
X82763761Y-85482809D01*
X82811380Y-85339952D01*
X82811380Y-85244714D01*
X81906619Y-86054238D02*
X81859000Y-86101857D01*
X81811380Y-86197095D01*
X81811380Y-86435190D01*
X81859000Y-86530428D01*
X81906619Y-86578047D01*
X82001857Y-86625666D01*
X82097095Y-86625666D01*
X82239952Y-86578047D01*
X82811380Y-86006619D01*
X82811380Y-86625666D01*
%TD*%
M02*
