M48
; DRILL file {KiCad (5.1.9)-1} date 06/15/21 19:58:53
; FORMAT={-:-/ absolute / inch / decimal}
; #@! TF.CreationDate,2021-06-15T19:58:53-04:00
; #@! TF.GenerationSoftware,Kicad,Pcbnew,(5.1.9)-1
; #@! TF.FileFunction,Plated,1,2,PTH
FMAT,2
INCH
T1C0.0100
T2C0.0150
T3C0.0157
T4C0.0256
T5C0.0276
T6C0.0300
T7C0.0394
%
G90
G05
T1
X3.73Y-3.494
T2
X3.09Y-3.92
X3.445Y-2.99
X3.445Y-3.08
X3.47Y-3.49
X3.51Y-3.2975
X3.69Y-3.74
X3.73Y-3.34
X3.7474Y-3.525
X3.845Y-3.12
T3
X3.24Y-3.5122
X3.71Y-3.68
X3.7972Y-3.4678
T6
X3.86Y-3.02
X3.95Y-3.02
T7
X3.48Y-2.845
X3.58Y-2.845
T4
G00X3.1763Y-3.3657
M15
G01X3.1921Y-3.3657
M16
G05
G00X3.1763Y-3.5563
M15
G01X3.1921Y-3.5563
M16
G05
T5
G00X3.0563Y-3.3535
M15
G01X3.0759Y-3.3535
M16
G05
G00X3.0563Y-3.5685
M15
G01X3.0759Y-3.5685
M16
G05
T0
M30
