%TF.GenerationSoftware,KiCad,Pcbnew,(5.1.9)-1*%
%TF.CreationDate,2021-06-15T19:58:51-04:00*%
%TF.ProjectId,uBMS,75424d53-2e6b-4696-9361-645f70636258,rev?*%
%TF.SameCoordinates,Original*%
%TF.FileFunction,Copper,L2,Bot*%
%TF.FilePolarity,Positive*%
%FSLAX46Y46*%
G04 Gerber Fmt 4.6, Leading zero omitted, Abs format (unit mm)*
G04 Created by KiCad (PCBNEW (5.1.9)-1) date 2021-06-15 19:58:51*
%MOMM*%
%LPD*%
G01*
G04 APERTURE LIST*
%TA.AperFunction,ComponentPad*%
%ADD10C,1.524000*%
%TD*%
%TA.AperFunction,SMDPad,CuDef*%
%ADD11R,2.500000X1.430000*%
%TD*%
%TA.AperFunction,ComponentPad*%
%ADD12O,1.700000X1.350000*%
%TD*%
%TA.AperFunction,ComponentPad*%
%ADD13O,1.500000X1.100000*%
%TD*%
%TA.AperFunction,SMDPad,CuDef*%
%ADD14R,1.650000X0.400000*%
%TD*%
%TA.AperFunction,SMDPad,CuDef*%
%ADD15R,1.500000X2.000000*%
%TD*%
%TA.AperFunction,SMDPad,CuDef*%
%ADD16R,0.700000X1.825000*%
%TD*%
%TA.AperFunction,SMDPad,CuDef*%
%ADD17R,2.000000X1.350000*%
%TD*%
%TA.AperFunction,ComponentPad*%
%ADD18O,1.700000X1.700000*%
%TD*%
%TA.AperFunction,ComponentPad*%
%ADD19R,1.700000X1.700000*%
%TD*%
%TA.AperFunction,ViaPad*%
%ADD20C,0.762000*%
%TD*%
%TA.AperFunction,ViaPad*%
%ADD21C,0.508000*%
%TD*%
%TA.AperFunction,ViaPad*%
%ADD22C,0.800000*%
%TD*%
%TA.AperFunction,Conductor*%
%ADD23C,0.254000*%
%TD*%
%TA.AperFunction,Conductor*%
%ADD24C,0.508000*%
%TD*%
%TA.AperFunction,Conductor*%
%ADD25C,0.100000*%
%TD*%
G04 APERTURE END LIST*
D10*
%TO.P,3.7V 180mAh,2*%
%TO.N,GND*%
X98044000Y-76708000D03*
%TO.P,3.7V 180mAh,1*%
%TO.N,+V_BAT*%
X100330000Y-76708000D03*
%TD*%
D11*
%TO.P,J2,6*%
%TO.N,GND*%
X77609000Y-86949000D03*
X77609000Y-88869000D03*
D12*
X77879000Y-85179000D03*
X77879000Y-90639000D03*
D13*
X80879000Y-85489000D03*
X80879000Y-90329000D03*
D14*
%TO.P,J2,5*%
X80759000Y-86609000D03*
%TO.P,J2,4*%
%TO.N,Net-(J2-Pad4)*%
X80759000Y-87259000D03*
%TO.P,J2,3*%
%TO.N,Net-(J2-Pad3)*%
X80759000Y-87909000D03*
%TO.P,J2,2*%
%TO.N,Net-(J2-Pad2)*%
X80759000Y-88559000D03*
%TO.P,J2,1*%
%TO.N,+V_USB*%
X80759000Y-89209000D03*
D15*
%TO.P,J2,6*%
%TO.N,GND*%
X80879000Y-85009000D03*
X80859000Y-90759000D03*
D16*
X79559000Y-84909000D03*
X79559000Y-90859000D03*
D17*
X78809000Y-90639000D03*
X78809000Y-85159000D03*
%TD*%
D18*
%TO.P,W,2*%
%TO.N,GND*%
X88392000Y-72263000D03*
D19*
%TO.P,W,1*%
%TO.N,+5V*%
X90932000Y-72263000D03*
%TD*%
D20*
%TO.N,GND*%
X78486000Y-99568000D03*
D21*
X94742000Y-88747600D03*
D20*
X95184000Y-89535000D03*
X93726000Y-94996000D03*
X88138000Y-88646000D03*
X97663000Y-79248000D03*
X94742000Y-84836000D03*
X87503000Y-75946000D03*
X87503000Y-78232000D03*
X89154000Y-83756500D03*
D22*
%TO.N,+V_USB*%
X94234000Y-93472000D03*
X82296000Y-89209000D03*
X96448398Y-88082602D03*
%TD*%
D23*
%TO.N,GND*%
X80759000Y-85609000D02*
X80879000Y-85489000D01*
X80759000Y-86609000D02*
X80759000Y-85609000D01*
X80549000Y-85159000D02*
X80879000Y-85489000D01*
X77609000Y-90369000D02*
X77879000Y-90639000D01*
X80739000Y-90639000D02*
X80859000Y-90759000D01*
D24*
X79559000Y-91424000D02*
X79559000Y-92710000D01*
D23*
X79309000Y-85159000D02*
X79559000Y-84909000D01*
X78809000Y-85159000D02*
X79309000Y-85159000D01*
D24*
X79559000Y-82042000D02*
X79559000Y-84204000D01*
X77609000Y-85449000D02*
X77879000Y-85179000D01*
X77609000Y-86949000D02*
X77609000Y-85449000D01*
D23*
%TO.N,+V_USB*%
X80759000Y-89209000D02*
X82495000Y-89209000D01*
X82495000Y-89209000D02*
X82495000Y-89209000D01*
X96448398Y-91257602D02*
X94234000Y-93472000D01*
X96448398Y-88082602D02*
X96448398Y-91257602D01*
%TD*%
%TO.N,GND*%
X97948752Y-74930794D02*
X97951190Y-74954776D01*
X97958417Y-74978601D01*
X97970153Y-75000557D01*
X97985947Y-75019803D01*
X98005193Y-75035597D01*
X98027149Y-75047333D01*
X98050974Y-75054560D01*
X98075750Y-75057000D01*
X102464001Y-75057000D01*
X102464000Y-100940000D01*
X76860000Y-100940000D01*
X76860000Y-93370061D01*
X93199000Y-93370061D01*
X93199000Y-93573939D01*
X93238774Y-93773898D01*
X93316795Y-93962256D01*
X93430063Y-94131774D01*
X93574226Y-94275937D01*
X93743744Y-94389205D01*
X93932102Y-94467226D01*
X94132061Y-94507000D01*
X94335939Y-94507000D01*
X94535898Y-94467226D01*
X94724256Y-94389205D01*
X94893774Y-94275937D01*
X95037937Y-94131774D01*
X95151205Y-93962256D01*
X95229226Y-93773898D01*
X95269000Y-93573939D01*
X95269000Y-93514630D01*
X96960744Y-91822886D01*
X96989820Y-91799024D01*
X97050255Y-91725383D01*
X97085043Y-91682995D01*
X97155799Y-91550618D01*
X97155800Y-91550617D01*
X97199372Y-91406980D01*
X97210398Y-91295028D01*
X97210398Y-91295025D01*
X97214084Y-91257602D01*
X97210398Y-91220179D01*
X97210398Y-88784313D01*
X97252335Y-88742376D01*
X97365603Y-88572858D01*
X97443624Y-88384500D01*
X97483398Y-88184541D01*
X97483398Y-87980663D01*
X97443624Y-87780704D01*
X97365603Y-87592346D01*
X97252335Y-87422828D01*
X97108172Y-87278665D01*
X96938654Y-87165397D01*
X96750296Y-87087376D01*
X96550337Y-87047602D01*
X96346459Y-87047602D01*
X96146500Y-87087376D01*
X95958142Y-87165397D01*
X95788624Y-87278665D01*
X95644461Y-87422828D01*
X95531193Y-87592346D01*
X95453172Y-87780704D01*
X95413398Y-87980663D01*
X95413398Y-88184541D01*
X95453172Y-88384500D01*
X95531193Y-88572858D01*
X95644461Y-88742376D01*
X95686398Y-88784313D01*
X95686399Y-90941971D01*
X94191370Y-92437000D01*
X94132061Y-92437000D01*
X93932102Y-92476774D01*
X93743744Y-92554795D01*
X93574226Y-92668063D01*
X93430063Y-92812226D01*
X93316795Y-92981744D01*
X93238774Y-93170102D01*
X93199000Y-93370061D01*
X76860000Y-93370061D01*
X76860000Y-91643353D01*
X77059239Y-91783019D01*
X77294815Y-91886824D01*
X77546116Y-91942675D01*
X77589555Y-91911005D01*
X77684518Y-91939812D01*
X77751998Y-91946458D01*
X77751998Y-91949000D01*
X77777808Y-91949000D01*
X77809000Y-91952072D01*
X78523250Y-91949000D01*
X78582568Y-91889682D01*
X78583188Y-91895982D01*
X78619498Y-92015680D01*
X78678463Y-92125994D01*
X78757815Y-92222685D01*
X78854506Y-92302037D01*
X78964820Y-92361002D01*
X79084518Y-92397312D01*
X79209000Y-92409572D01*
X79273250Y-92406500D01*
X79432000Y-92247750D01*
X79432000Y-91950451D01*
X79503596Y-91950758D01*
X79519498Y-92003180D01*
X79578463Y-92113494D01*
X79657815Y-92210185D01*
X79686000Y-92233316D01*
X79686000Y-92247750D01*
X79844750Y-92406500D01*
X79909000Y-92409572D01*
X80033482Y-92397312D01*
X80052588Y-92391516D01*
X80109000Y-92397072D01*
X80573250Y-92394000D01*
X80732000Y-92235250D01*
X80732000Y-91375797D01*
X80752000Y-91359152D01*
X80752000Y-90612000D01*
X80986000Y-90612000D01*
X80986000Y-90632000D01*
X81006000Y-90632000D01*
X81006000Y-90886000D01*
X80986000Y-90886000D01*
X80986000Y-92235250D01*
X81144750Y-92394000D01*
X81609000Y-92397072D01*
X81733482Y-92384812D01*
X81853180Y-92348502D01*
X81963494Y-92289537D01*
X82060185Y-92210185D01*
X82139537Y-92113494D01*
X82198502Y-92003180D01*
X82234812Y-91883482D01*
X82247072Y-91759000D01*
X82244000Y-91044750D01*
X82113730Y-90914480D01*
X82128131Y-90893039D01*
X82218011Y-90677526D01*
X82222803Y-90638744D01*
X82164069Y-90553181D01*
X82244000Y-90473250D01*
X82244986Y-90244000D01*
X82397939Y-90244000D01*
X82597898Y-90204226D01*
X82786256Y-90126205D01*
X82955774Y-90012937D01*
X83099937Y-89868774D01*
X83213205Y-89699256D01*
X83291226Y-89510898D01*
X83331000Y-89310939D01*
X83331000Y-89107061D01*
X83291226Y-88907102D01*
X83213205Y-88718744D01*
X83099937Y-88549226D01*
X82955774Y-88405063D01*
X82786256Y-88291795D01*
X82597898Y-88213774D01*
X82397939Y-88174000D01*
X82215670Y-88174000D01*
X82222072Y-88109000D01*
X82222072Y-87709000D01*
X82209812Y-87584518D01*
X82209655Y-87584000D01*
X82209812Y-87583482D01*
X82222072Y-87459000D01*
X82222072Y-87059000D01*
X82209812Y-86934518D01*
X82209103Y-86932180D01*
X82219000Y-86840750D01*
X82151032Y-86772782D01*
X82114537Y-86704506D01*
X82035185Y-86607815D01*
X81964415Y-86549735D01*
X81983494Y-86539537D01*
X81987804Y-86536000D01*
X82060250Y-86536000D01*
X82219000Y-86377250D01*
X82208022Y-86275836D01*
X82207413Y-86273925D01*
X82218502Y-86253180D01*
X82254812Y-86133482D01*
X82267072Y-86009000D01*
X82264000Y-85294750D01*
X82192562Y-85223312D01*
X82222803Y-85179256D01*
X82218011Y-85140474D01*
X82128131Y-84924961D01*
X82099275Y-84882000D01*
X82105250Y-84882000D01*
X82264000Y-84723250D01*
X82267072Y-84009000D01*
X82254812Y-83884518D01*
X82218502Y-83764820D01*
X82159537Y-83654506D01*
X82080185Y-83557815D01*
X81983494Y-83478463D01*
X81873180Y-83419498D01*
X81753482Y-83383188D01*
X81629000Y-83370928D01*
X81164750Y-83374000D01*
X81006000Y-83532750D01*
X81006000Y-85156000D01*
X80752000Y-85156000D01*
X80752000Y-83532750D01*
X80593250Y-83374000D01*
X80129000Y-83370928D01*
X80057490Y-83377971D01*
X80033482Y-83370688D01*
X79909000Y-83358428D01*
X79844750Y-83361500D01*
X79686000Y-83520250D01*
X79686000Y-83551098D01*
X79677815Y-83557815D01*
X79598463Y-83654506D01*
X79539498Y-83764820D01*
X79514510Y-83847195D01*
X79432000Y-83847549D01*
X79432000Y-83520250D01*
X79273250Y-83361500D01*
X79209000Y-83358428D01*
X79084518Y-83370688D01*
X78964820Y-83406998D01*
X78854506Y-83465963D01*
X78757815Y-83545315D01*
X78678463Y-83642006D01*
X78619498Y-83752320D01*
X78583188Y-83872018D01*
X78579878Y-83905628D01*
X78523250Y-83849000D01*
X77809000Y-83845928D01*
X77684518Y-83858188D01*
X77570183Y-83892871D01*
X77546116Y-83875325D01*
X77294815Y-83931176D01*
X77059239Y-84034981D01*
X76860000Y-84174647D01*
X76860000Y-77673565D01*
X97258040Y-77673565D01*
X97325020Y-77913656D01*
X97574048Y-78030756D01*
X97841135Y-78097023D01*
X98116017Y-78109910D01*
X98388133Y-78068922D01*
X98647023Y-77975636D01*
X98762980Y-77913656D01*
X98829960Y-77673565D01*
X98044000Y-76887605D01*
X97258040Y-77673565D01*
X76860000Y-77673565D01*
X76860000Y-76780017D01*
X96642090Y-76780017D01*
X96683078Y-77052133D01*
X96776364Y-77311023D01*
X96838344Y-77426980D01*
X97078435Y-77493960D01*
X97864395Y-76708000D01*
X98223605Y-76708000D01*
X99009565Y-77493960D01*
X99149011Y-77455058D01*
X99244880Y-77598535D01*
X99439465Y-77793120D01*
X99668273Y-77946005D01*
X99922510Y-78051314D01*
X100192408Y-78105000D01*
X100467592Y-78105000D01*
X100737490Y-78051314D01*
X100991727Y-77946005D01*
X101220535Y-77793120D01*
X101415120Y-77598535D01*
X101568005Y-77369727D01*
X101673314Y-77115490D01*
X101727000Y-76845592D01*
X101727000Y-76570408D01*
X101673314Y-76300510D01*
X101568005Y-76046273D01*
X101415120Y-75817465D01*
X101220535Y-75622880D01*
X100991727Y-75469995D01*
X100737490Y-75364686D01*
X100467592Y-75311000D01*
X100192408Y-75311000D01*
X99922510Y-75364686D01*
X99668273Y-75469995D01*
X99439465Y-75622880D01*
X99244880Y-75817465D01*
X99149011Y-75960942D01*
X99009565Y-75922040D01*
X98223605Y-76708000D01*
X97864395Y-76708000D01*
X97078435Y-75922040D01*
X96838344Y-75989020D01*
X96721244Y-76238048D01*
X96654977Y-76505135D01*
X96642090Y-76780017D01*
X76860000Y-76780017D01*
X76860000Y-75742435D01*
X97258040Y-75742435D01*
X98044000Y-76528395D01*
X98829960Y-75742435D01*
X98762980Y-75502344D01*
X98513952Y-75385244D01*
X98246865Y-75318977D01*
X97971983Y-75306090D01*
X97699867Y-75347078D01*
X97440977Y-75440364D01*
X97325020Y-75502344D01*
X97258040Y-75742435D01*
X76860000Y-75742435D01*
X76860000Y-75057000D01*
X81248250Y-75057000D01*
X81273804Y-75054402D01*
X81297583Y-75047027D01*
X81319466Y-75035154D01*
X81338612Y-75019240D01*
X81354286Y-74999896D01*
X81365884Y-74977867D01*
X81372962Y-74953998D01*
X81375248Y-74929206D01*
X81360815Y-72619891D01*
X86950519Y-72619891D01*
X87047843Y-72894252D01*
X87196822Y-73144355D01*
X87391731Y-73360588D01*
X87625080Y-73534641D01*
X87887901Y-73659825D01*
X88035110Y-73704476D01*
X88265000Y-73583155D01*
X88265000Y-72390000D01*
X87071186Y-72390000D01*
X86950519Y-72619891D01*
X81360815Y-72619891D01*
X81356354Y-71906109D01*
X86950519Y-71906109D01*
X87071186Y-72136000D01*
X88265000Y-72136000D01*
X88265000Y-70942845D01*
X88519000Y-70942845D01*
X88519000Y-72136000D01*
X88539000Y-72136000D01*
X88539000Y-72390000D01*
X88519000Y-72390000D01*
X88519000Y-73583155D01*
X88748890Y-73704476D01*
X88896099Y-73659825D01*
X89158920Y-73534641D01*
X89392269Y-73360588D01*
X89468034Y-73276534D01*
X89492498Y-73357180D01*
X89551463Y-73467494D01*
X89630815Y-73564185D01*
X89727506Y-73643537D01*
X89837820Y-73702502D01*
X89957518Y-73738812D01*
X90082000Y-73751072D01*
X91782000Y-73751072D01*
X91906482Y-73738812D01*
X92026180Y-73702502D01*
X92136494Y-73643537D01*
X92233185Y-73564185D01*
X92312537Y-73467494D01*
X92371502Y-73357180D01*
X92407812Y-73237482D01*
X92420072Y-73113000D01*
X92420072Y-71413000D01*
X92407812Y-71288518D01*
X92371502Y-71168820D01*
X92312537Y-71058506D01*
X92233185Y-70961815D01*
X92136494Y-70882463D01*
X92026180Y-70823498D01*
X91906482Y-70787188D01*
X91782000Y-70774928D01*
X90082000Y-70774928D01*
X89957518Y-70787188D01*
X89837820Y-70823498D01*
X89727506Y-70882463D01*
X89630815Y-70961815D01*
X89551463Y-71058506D01*
X89492498Y-71168820D01*
X89468034Y-71249466D01*
X89392269Y-71165412D01*
X89158920Y-70991359D01*
X88896099Y-70866175D01*
X88748890Y-70821524D01*
X88519000Y-70942845D01*
X88265000Y-70942845D01*
X88035110Y-70821524D01*
X87887901Y-70866175D01*
X87625080Y-70991359D01*
X87391731Y-71165412D01*
X87196822Y-71381645D01*
X87047843Y-71631748D01*
X86950519Y-71906109D01*
X81356354Y-71906109D01*
X81347628Y-70510000D01*
X97921122Y-70510000D01*
X97948752Y-74930794D01*
%TA.AperFunction,Conductor*%
D25*
G36*
X97948752Y-74930794D02*
G01*
X97951190Y-74954776D01*
X97958417Y-74978601D01*
X97970153Y-75000557D01*
X97985947Y-75019803D01*
X98005193Y-75035597D01*
X98027149Y-75047333D01*
X98050974Y-75054560D01*
X98075750Y-75057000D01*
X102464001Y-75057000D01*
X102464000Y-100940000D01*
X76860000Y-100940000D01*
X76860000Y-93370061D01*
X93199000Y-93370061D01*
X93199000Y-93573939D01*
X93238774Y-93773898D01*
X93316795Y-93962256D01*
X93430063Y-94131774D01*
X93574226Y-94275937D01*
X93743744Y-94389205D01*
X93932102Y-94467226D01*
X94132061Y-94507000D01*
X94335939Y-94507000D01*
X94535898Y-94467226D01*
X94724256Y-94389205D01*
X94893774Y-94275937D01*
X95037937Y-94131774D01*
X95151205Y-93962256D01*
X95229226Y-93773898D01*
X95269000Y-93573939D01*
X95269000Y-93514630D01*
X96960744Y-91822886D01*
X96989820Y-91799024D01*
X97050255Y-91725383D01*
X97085043Y-91682995D01*
X97155799Y-91550618D01*
X97155800Y-91550617D01*
X97199372Y-91406980D01*
X97210398Y-91295028D01*
X97210398Y-91295025D01*
X97214084Y-91257602D01*
X97210398Y-91220179D01*
X97210398Y-88784313D01*
X97252335Y-88742376D01*
X97365603Y-88572858D01*
X97443624Y-88384500D01*
X97483398Y-88184541D01*
X97483398Y-87980663D01*
X97443624Y-87780704D01*
X97365603Y-87592346D01*
X97252335Y-87422828D01*
X97108172Y-87278665D01*
X96938654Y-87165397D01*
X96750296Y-87087376D01*
X96550337Y-87047602D01*
X96346459Y-87047602D01*
X96146500Y-87087376D01*
X95958142Y-87165397D01*
X95788624Y-87278665D01*
X95644461Y-87422828D01*
X95531193Y-87592346D01*
X95453172Y-87780704D01*
X95413398Y-87980663D01*
X95413398Y-88184541D01*
X95453172Y-88384500D01*
X95531193Y-88572858D01*
X95644461Y-88742376D01*
X95686398Y-88784313D01*
X95686399Y-90941971D01*
X94191370Y-92437000D01*
X94132061Y-92437000D01*
X93932102Y-92476774D01*
X93743744Y-92554795D01*
X93574226Y-92668063D01*
X93430063Y-92812226D01*
X93316795Y-92981744D01*
X93238774Y-93170102D01*
X93199000Y-93370061D01*
X76860000Y-93370061D01*
X76860000Y-91643353D01*
X77059239Y-91783019D01*
X77294815Y-91886824D01*
X77546116Y-91942675D01*
X77589555Y-91911005D01*
X77684518Y-91939812D01*
X77751998Y-91946458D01*
X77751998Y-91949000D01*
X77777808Y-91949000D01*
X77809000Y-91952072D01*
X78523250Y-91949000D01*
X78582568Y-91889682D01*
X78583188Y-91895982D01*
X78619498Y-92015680D01*
X78678463Y-92125994D01*
X78757815Y-92222685D01*
X78854506Y-92302037D01*
X78964820Y-92361002D01*
X79084518Y-92397312D01*
X79209000Y-92409572D01*
X79273250Y-92406500D01*
X79432000Y-92247750D01*
X79432000Y-91950451D01*
X79503596Y-91950758D01*
X79519498Y-92003180D01*
X79578463Y-92113494D01*
X79657815Y-92210185D01*
X79686000Y-92233316D01*
X79686000Y-92247750D01*
X79844750Y-92406500D01*
X79909000Y-92409572D01*
X80033482Y-92397312D01*
X80052588Y-92391516D01*
X80109000Y-92397072D01*
X80573250Y-92394000D01*
X80732000Y-92235250D01*
X80732000Y-91375797D01*
X80752000Y-91359152D01*
X80752000Y-90612000D01*
X80986000Y-90612000D01*
X80986000Y-90632000D01*
X81006000Y-90632000D01*
X81006000Y-90886000D01*
X80986000Y-90886000D01*
X80986000Y-92235250D01*
X81144750Y-92394000D01*
X81609000Y-92397072D01*
X81733482Y-92384812D01*
X81853180Y-92348502D01*
X81963494Y-92289537D01*
X82060185Y-92210185D01*
X82139537Y-92113494D01*
X82198502Y-92003180D01*
X82234812Y-91883482D01*
X82247072Y-91759000D01*
X82244000Y-91044750D01*
X82113730Y-90914480D01*
X82128131Y-90893039D01*
X82218011Y-90677526D01*
X82222803Y-90638744D01*
X82164069Y-90553181D01*
X82244000Y-90473250D01*
X82244986Y-90244000D01*
X82397939Y-90244000D01*
X82597898Y-90204226D01*
X82786256Y-90126205D01*
X82955774Y-90012937D01*
X83099937Y-89868774D01*
X83213205Y-89699256D01*
X83291226Y-89510898D01*
X83331000Y-89310939D01*
X83331000Y-89107061D01*
X83291226Y-88907102D01*
X83213205Y-88718744D01*
X83099937Y-88549226D01*
X82955774Y-88405063D01*
X82786256Y-88291795D01*
X82597898Y-88213774D01*
X82397939Y-88174000D01*
X82215670Y-88174000D01*
X82222072Y-88109000D01*
X82222072Y-87709000D01*
X82209812Y-87584518D01*
X82209655Y-87584000D01*
X82209812Y-87583482D01*
X82222072Y-87459000D01*
X82222072Y-87059000D01*
X82209812Y-86934518D01*
X82209103Y-86932180D01*
X82219000Y-86840750D01*
X82151032Y-86772782D01*
X82114537Y-86704506D01*
X82035185Y-86607815D01*
X81964415Y-86549735D01*
X81983494Y-86539537D01*
X81987804Y-86536000D01*
X82060250Y-86536000D01*
X82219000Y-86377250D01*
X82208022Y-86275836D01*
X82207413Y-86273925D01*
X82218502Y-86253180D01*
X82254812Y-86133482D01*
X82267072Y-86009000D01*
X82264000Y-85294750D01*
X82192562Y-85223312D01*
X82222803Y-85179256D01*
X82218011Y-85140474D01*
X82128131Y-84924961D01*
X82099275Y-84882000D01*
X82105250Y-84882000D01*
X82264000Y-84723250D01*
X82267072Y-84009000D01*
X82254812Y-83884518D01*
X82218502Y-83764820D01*
X82159537Y-83654506D01*
X82080185Y-83557815D01*
X81983494Y-83478463D01*
X81873180Y-83419498D01*
X81753482Y-83383188D01*
X81629000Y-83370928D01*
X81164750Y-83374000D01*
X81006000Y-83532750D01*
X81006000Y-85156000D01*
X80752000Y-85156000D01*
X80752000Y-83532750D01*
X80593250Y-83374000D01*
X80129000Y-83370928D01*
X80057490Y-83377971D01*
X80033482Y-83370688D01*
X79909000Y-83358428D01*
X79844750Y-83361500D01*
X79686000Y-83520250D01*
X79686000Y-83551098D01*
X79677815Y-83557815D01*
X79598463Y-83654506D01*
X79539498Y-83764820D01*
X79514510Y-83847195D01*
X79432000Y-83847549D01*
X79432000Y-83520250D01*
X79273250Y-83361500D01*
X79209000Y-83358428D01*
X79084518Y-83370688D01*
X78964820Y-83406998D01*
X78854506Y-83465963D01*
X78757815Y-83545315D01*
X78678463Y-83642006D01*
X78619498Y-83752320D01*
X78583188Y-83872018D01*
X78579878Y-83905628D01*
X78523250Y-83849000D01*
X77809000Y-83845928D01*
X77684518Y-83858188D01*
X77570183Y-83892871D01*
X77546116Y-83875325D01*
X77294815Y-83931176D01*
X77059239Y-84034981D01*
X76860000Y-84174647D01*
X76860000Y-77673565D01*
X97258040Y-77673565D01*
X97325020Y-77913656D01*
X97574048Y-78030756D01*
X97841135Y-78097023D01*
X98116017Y-78109910D01*
X98388133Y-78068922D01*
X98647023Y-77975636D01*
X98762980Y-77913656D01*
X98829960Y-77673565D01*
X98044000Y-76887605D01*
X97258040Y-77673565D01*
X76860000Y-77673565D01*
X76860000Y-76780017D01*
X96642090Y-76780017D01*
X96683078Y-77052133D01*
X96776364Y-77311023D01*
X96838344Y-77426980D01*
X97078435Y-77493960D01*
X97864395Y-76708000D01*
X98223605Y-76708000D01*
X99009565Y-77493960D01*
X99149011Y-77455058D01*
X99244880Y-77598535D01*
X99439465Y-77793120D01*
X99668273Y-77946005D01*
X99922510Y-78051314D01*
X100192408Y-78105000D01*
X100467592Y-78105000D01*
X100737490Y-78051314D01*
X100991727Y-77946005D01*
X101220535Y-77793120D01*
X101415120Y-77598535D01*
X101568005Y-77369727D01*
X101673314Y-77115490D01*
X101727000Y-76845592D01*
X101727000Y-76570408D01*
X101673314Y-76300510D01*
X101568005Y-76046273D01*
X101415120Y-75817465D01*
X101220535Y-75622880D01*
X100991727Y-75469995D01*
X100737490Y-75364686D01*
X100467592Y-75311000D01*
X100192408Y-75311000D01*
X99922510Y-75364686D01*
X99668273Y-75469995D01*
X99439465Y-75622880D01*
X99244880Y-75817465D01*
X99149011Y-75960942D01*
X99009565Y-75922040D01*
X98223605Y-76708000D01*
X97864395Y-76708000D01*
X97078435Y-75922040D01*
X96838344Y-75989020D01*
X96721244Y-76238048D01*
X96654977Y-76505135D01*
X96642090Y-76780017D01*
X76860000Y-76780017D01*
X76860000Y-75742435D01*
X97258040Y-75742435D01*
X98044000Y-76528395D01*
X98829960Y-75742435D01*
X98762980Y-75502344D01*
X98513952Y-75385244D01*
X98246865Y-75318977D01*
X97971983Y-75306090D01*
X97699867Y-75347078D01*
X97440977Y-75440364D01*
X97325020Y-75502344D01*
X97258040Y-75742435D01*
X76860000Y-75742435D01*
X76860000Y-75057000D01*
X81248250Y-75057000D01*
X81273804Y-75054402D01*
X81297583Y-75047027D01*
X81319466Y-75035154D01*
X81338612Y-75019240D01*
X81354286Y-74999896D01*
X81365884Y-74977867D01*
X81372962Y-74953998D01*
X81375248Y-74929206D01*
X81360815Y-72619891D01*
X86950519Y-72619891D01*
X87047843Y-72894252D01*
X87196822Y-73144355D01*
X87391731Y-73360588D01*
X87625080Y-73534641D01*
X87887901Y-73659825D01*
X88035110Y-73704476D01*
X88265000Y-73583155D01*
X88265000Y-72390000D01*
X87071186Y-72390000D01*
X86950519Y-72619891D01*
X81360815Y-72619891D01*
X81356354Y-71906109D01*
X86950519Y-71906109D01*
X87071186Y-72136000D01*
X88265000Y-72136000D01*
X88265000Y-70942845D01*
X88519000Y-70942845D01*
X88519000Y-72136000D01*
X88539000Y-72136000D01*
X88539000Y-72390000D01*
X88519000Y-72390000D01*
X88519000Y-73583155D01*
X88748890Y-73704476D01*
X88896099Y-73659825D01*
X89158920Y-73534641D01*
X89392269Y-73360588D01*
X89468034Y-73276534D01*
X89492498Y-73357180D01*
X89551463Y-73467494D01*
X89630815Y-73564185D01*
X89727506Y-73643537D01*
X89837820Y-73702502D01*
X89957518Y-73738812D01*
X90082000Y-73751072D01*
X91782000Y-73751072D01*
X91906482Y-73738812D01*
X92026180Y-73702502D01*
X92136494Y-73643537D01*
X92233185Y-73564185D01*
X92312537Y-73467494D01*
X92371502Y-73357180D01*
X92407812Y-73237482D01*
X92420072Y-73113000D01*
X92420072Y-71413000D01*
X92407812Y-71288518D01*
X92371502Y-71168820D01*
X92312537Y-71058506D01*
X92233185Y-70961815D01*
X92136494Y-70882463D01*
X92026180Y-70823498D01*
X91906482Y-70787188D01*
X91782000Y-70774928D01*
X90082000Y-70774928D01*
X89957518Y-70787188D01*
X89837820Y-70823498D01*
X89727506Y-70882463D01*
X89630815Y-70961815D01*
X89551463Y-71058506D01*
X89492498Y-71168820D01*
X89468034Y-71249466D01*
X89392269Y-71165412D01*
X89158920Y-70991359D01*
X88896099Y-70866175D01*
X88748890Y-70821524D01*
X88519000Y-70942845D01*
X88265000Y-70942845D01*
X88035110Y-70821524D01*
X87887901Y-70866175D01*
X87625080Y-70991359D01*
X87391731Y-71165412D01*
X87196822Y-71381645D01*
X87047843Y-71631748D01*
X86950519Y-71906109D01*
X81356354Y-71906109D01*
X81347628Y-70510000D01*
X97921122Y-70510000D01*
X97948752Y-74930794D01*
G37*
%TD.AperFunction*%
D23*
X78026000Y-90766000D02*
X77732000Y-90766000D01*
X77732000Y-90512000D01*
X78026000Y-90512000D01*
X78026000Y-90766000D01*
%TA.AperFunction,Conductor*%
D25*
G36*
X78026000Y-90766000D02*
G01*
X77732000Y-90766000D01*
X77732000Y-90512000D01*
X78026000Y-90512000D01*
X78026000Y-90766000D01*
G37*
%TD.AperFunction*%
D23*
X77736000Y-86822000D02*
X77756000Y-86822000D01*
X77756000Y-87076000D01*
X77736000Y-87076000D01*
X77736000Y-88742000D01*
X77756000Y-88742000D01*
X77756000Y-88996000D01*
X77736000Y-88996000D01*
X77736000Y-89016000D01*
X77482000Y-89016000D01*
X77482000Y-88996000D01*
X77462000Y-88996000D01*
X77462000Y-88742000D01*
X77482000Y-88742000D01*
X77482000Y-87076000D01*
X77462000Y-87076000D01*
X77462000Y-86822000D01*
X77482000Y-86822000D01*
X77482000Y-86802000D01*
X77736000Y-86802000D01*
X77736000Y-86822000D01*
%TA.AperFunction,Conductor*%
D25*
G36*
X77736000Y-86822000D02*
G01*
X77756000Y-86822000D01*
X77756000Y-87076000D01*
X77736000Y-87076000D01*
X77736000Y-88742000D01*
X77756000Y-88742000D01*
X77756000Y-88996000D01*
X77736000Y-88996000D01*
X77736000Y-89016000D01*
X77482000Y-89016000D01*
X77482000Y-88996000D01*
X77462000Y-88996000D01*
X77462000Y-88742000D01*
X77482000Y-88742000D01*
X77482000Y-87076000D01*
X77462000Y-87076000D01*
X77462000Y-86822000D01*
X77482000Y-86822000D01*
X77482000Y-86802000D01*
X77736000Y-86802000D01*
X77736000Y-86822000D01*
G37*
%TD.AperFunction*%
D23*
X78006000Y-85052000D02*
X78026000Y-85052000D01*
X78026000Y-85286000D01*
X77732000Y-85286000D01*
X77732000Y-85052000D01*
X77752000Y-85052000D01*
X77752000Y-85032000D01*
X78006000Y-85032000D01*
X78006000Y-85052000D01*
%TA.AperFunction,Conductor*%
D25*
G36*
X78006000Y-85052000D02*
G01*
X78026000Y-85052000D01*
X78026000Y-85286000D01*
X77732000Y-85286000D01*
X77732000Y-85052000D01*
X77752000Y-85052000D01*
X77752000Y-85032000D01*
X78006000Y-85032000D01*
X78006000Y-85052000D01*
G37*
%TD.AperFunction*%
%TD*%
M02*
