%TF.GenerationSoftware,KiCad,Pcbnew,(5.1.9)-1*%
%TF.CreationDate,2021-06-15T19:58:51-04:00*%
%TF.ProjectId,uBMS,75424d53-2e6b-4696-9361-645f70636258,rev?*%
%TF.SameCoordinates,Original*%
%TF.FileFunction,Soldermask,Top*%
%TF.FilePolarity,Negative*%
%FSLAX46Y46*%
G04 Gerber Fmt 4.6, Leading zero omitted, Abs format (unit mm)*
G04 Created by KiCad (PCBNEW (5.1.9)-1) date 2021-06-15 19:58:51*
%MOMM*%
%LPD*%
G01*
G04 APERTURE LIST*
%ADD10C,1.524000*%
%ADD11O,1.700000X1.350000*%
%ADD12O,1.500000X1.100000*%
%ADD13C,2.200000*%
%ADD14R,0.650000X1.060000*%
%ADD15R,0.406400X0.880600*%
%ADD16R,1.825000X2.200000*%
%ADD17O,1.700000X1.700000*%
%ADD18R,1.700000X1.700000*%
%ADD19R,1.000000X1.000000*%
G04 APERTURE END LIST*
%TO.C,C2*%
G36*
G01*
X89466000Y-88171000D02*
X89466000Y-89121000D01*
G75*
G02*
X89216000Y-89371000I-250000J0D01*
G01*
X88716000Y-89371000D01*
G75*
G02*
X88466000Y-89121000I0J250000D01*
G01*
X88466000Y-88171000D01*
G75*
G02*
X88716000Y-87921000I250000J0D01*
G01*
X89216000Y-87921000D01*
G75*
G02*
X89466000Y-88171000I0J-250000D01*
G01*
G37*
G36*
G01*
X91366000Y-88171000D02*
X91366000Y-89121000D01*
G75*
G02*
X91116000Y-89371000I-250000J0D01*
G01*
X90616000Y-89371000D01*
G75*
G02*
X90366000Y-89121000I0J250000D01*
G01*
X90366000Y-88171000D01*
G75*
G02*
X90616000Y-87921000I250000J0D01*
G01*
X91116000Y-87921000D01*
G75*
G02*
X91366000Y-88171000I0J-250000D01*
G01*
G37*
%TD*%
%TO.C,R4*%
G36*
G01*
X83079000Y-94063000D02*
X82529000Y-94063000D01*
G75*
G02*
X82329000Y-93863000I0J200000D01*
G01*
X82329000Y-93463000D01*
G75*
G02*
X82529000Y-93263000I200000J0D01*
G01*
X83079000Y-93263000D01*
G75*
G02*
X83279000Y-93463000I0J-200000D01*
G01*
X83279000Y-93863000D01*
G75*
G02*
X83079000Y-94063000I-200000J0D01*
G01*
G37*
G36*
G01*
X83079000Y-95713000D02*
X82529000Y-95713000D01*
G75*
G02*
X82329000Y-95513000I0J200000D01*
G01*
X82329000Y-95113000D01*
G75*
G02*
X82529000Y-94913000I200000J0D01*
G01*
X83079000Y-94913000D01*
G75*
G02*
X83279000Y-95113000I0J-200000D01*
G01*
X83279000Y-95513000D01*
G75*
G02*
X83079000Y-95713000I-200000J0D01*
G01*
G37*
%TD*%
%TO.C,R2*%
G36*
G01*
X81047000Y-94063000D02*
X80497000Y-94063000D01*
G75*
G02*
X80297000Y-93863000I0J200000D01*
G01*
X80297000Y-93463000D01*
G75*
G02*
X80497000Y-93263000I200000J0D01*
G01*
X81047000Y-93263000D01*
G75*
G02*
X81247000Y-93463000I0J-200000D01*
G01*
X81247000Y-93863000D01*
G75*
G02*
X81047000Y-94063000I-200000J0D01*
G01*
G37*
G36*
G01*
X81047000Y-95713000D02*
X80497000Y-95713000D01*
G75*
G02*
X80297000Y-95513000I0J200000D01*
G01*
X80297000Y-95113000D01*
G75*
G02*
X80497000Y-94913000I200000J0D01*
G01*
X81047000Y-94913000D01*
G75*
G02*
X81247000Y-95113000I0J-200000D01*
G01*
X81247000Y-95513000D01*
G75*
G02*
X81047000Y-95713000I-200000J0D01*
G01*
G37*
%TD*%
%TO.C,DONE*%
G36*
G01*
X78742250Y-97694000D02*
X78229750Y-97694000D01*
G75*
G02*
X78011000Y-97475250I0J218750D01*
G01*
X78011000Y-97037750D01*
G75*
G02*
X78229750Y-96819000I218750J0D01*
G01*
X78742250Y-96819000D01*
G75*
G02*
X78961000Y-97037750I0J-218750D01*
G01*
X78961000Y-97475250D01*
G75*
G02*
X78742250Y-97694000I-218750J0D01*
G01*
G37*
G36*
G01*
X78742250Y-99269000D02*
X78229750Y-99269000D01*
G75*
G02*
X78011000Y-99050250I0J218750D01*
G01*
X78011000Y-98612750D01*
G75*
G02*
X78229750Y-98394000I218750J0D01*
G01*
X78742250Y-98394000D01*
G75*
G02*
X78961000Y-98612750I0J-218750D01*
G01*
X78961000Y-99050250D01*
G75*
G02*
X78742250Y-99269000I-218750J0D01*
G01*
G37*
%TD*%
%TO.C,CHG*%
G36*
G01*
X78742250Y-94138000D02*
X78229750Y-94138000D01*
G75*
G02*
X78011000Y-93919250I0J218750D01*
G01*
X78011000Y-93481750D01*
G75*
G02*
X78229750Y-93263000I218750J0D01*
G01*
X78742250Y-93263000D01*
G75*
G02*
X78961000Y-93481750I0J-218750D01*
G01*
X78961000Y-93919250D01*
G75*
G02*
X78742250Y-94138000I-218750J0D01*
G01*
G37*
G36*
G01*
X78742250Y-95713000D02*
X78229750Y-95713000D01*
G75*
G02*
X78011000Y-95494250I0J218750D01*
G01*
X78011000Y-95056750D01*
G75*
G02*
X78229750Y-94838000I218750J0D01*
G01*
X78742250Y-94838000D01*
G75*
G02*
X78961000Y-95056750I0J-218750D01*
G01*
X78961000Y-95494250D01*
G75*
G02*
X78742250Y-95713000I-218750J0D01*
G01*
G37*
%TD*%
D10*
%TO.C,3.7V 180mAh*%
X98044000Y-76708000D03*
X100330000Y-76708000D03*
%TD*%
D11*
%TO.C,J2*%
X77879000Y-85179000D03*
X77879000Y-90639000D03*
D12*
X80879000Y-85489000D03*
X80879000Y-90329000D03*
%TD*%
D13*
%TO.C,H1*%
X78740000Y-72390000D03*
%TD*%
D14*
%TO.C,U3*%
X88204000Y-80688000D03*
X90104000Y-80688000D03*
X90104000Y-82888000D03*
X89154000Y-82888000D03*
X88204000Y-82888000D03*
%TD*%
%TO.C,U2*%
X96134000Y-92624000D03*
X94234000Y-92624000D03*
X94234000Y-90424000D03*
X95184000Y-90424000D03*
X96134000Y-90424000D03*
%TD*%
D15*
%TO.C,U1*%
X94092001Y-88082602D03*
X94742000Y-88082602D03*
X95391999Y-88082602D03*
X95391999Y-85852000D03*
X94742000Y-85852000D03*
X94092001Y-85852000D03*
%TD*%
%TO.C,R3*%
G36*
G01*
X83545000Y-86785000D02*
X84095000Y-86785000D01*
G75*
G02*
X84295000Y-86985000I0J-200000D01*
G01*
X84295000Y-87385000D01*
G75*
G02*
X84095000Y-87585000I-200000J0D01*
G01*
X83545000Y-87585000D01*
G75*
G02*
X83345000Y-87385000I0J200000D01*
G01*
X83345000Y-86985000D01*
G75*
G02*
X83545000Y-86785000I200000J0D01*
G01*
G37*
G36*
G01*
X83545000Y-85135000D02*
X84095000Y-85135000D01*
G75*
G02*
X84295000Y-85335000I0J-200000D01*
G01*
X84295000Y-85735000D01*
G75*
G02*
X84095000Y-85935000I-200000J0D01*
G01*
X83545000Y-85935000D01*
G75*
G02*
X83345000Y-85735000I0J200000D01*
G01*
X83345000Y-85335000D01*
G75*
G02*
X83545000Y-85135000I200000J0D01*
G01*
G37*
%TD*%
%TO.C,R1*%
G36*
G01*
X94825000Y-94721000D02*
X94825000Y-95271000D01*
G75*
G02*
X94625000Y-95471000I-200000J0D01*
G01*
X94225000Y-95471000D01*
G75*
G02*
X94025000Y-95271000I0J200000D01*
G01*
X94025000Y-94721000D01*
G75*
G02*
X94225000Y-94521000I200000J0D01*
G01*
X94625000Y-94521000D01*
G75*
G02*
X94825000Y-94721000I0J-200000D01*
G01*
G37*
G36*
G01*
X96475000Y-94721000D02*
X96475000Y-95271000D01*
G75*
G02*
X96275000Y-95471000I-200000J0D01*
G01*
X95875000Y-95471000D01*
G75*
G02*
X95675000Y-95271000I0J200000D01*
G01*
X95675000Y-94721000D01*
G75*
G02*
X95875000Y-94521000I200000J0D01*
G01*
X96275000Y-94521000D01*
G75*
G02*
X96475000Y-94721000I0J-200000D01*
G01*
G37*
%TD*%
D16*
%TO.C,L1*%
X88374500Y-85852000D03*
X90949500Y-85852000D03*
%TD*%
D17*
%TO.C,W*%
X88392000Y-72263000D03*
D18*
X90932000Y-72263000D03*
%TD*%
D13*
%TO.C,H2*%
X100584000Y-72390000D03*
%TD*%
D19*
%TO.C,D1*%
X83820000Y-91674000D03*
X83820000Y-89174000D03*
%TD*%
%TO.C,C4*%
G36*
G01*
X88857500Y-75495999D02*
X88857500Y-76396001D01*
G75*
G02*
X88607501Y-76646000I-249999J0D01*
G01*
X88082499Y-76646000D01*
G75*
G02*
X87832500Y-76396001I0J249999D01*
G01*
X87832500Y-75495999D01*
G75*
G02*
X88082499Y-75246000I249999J0D01*
G01*
X88607501Y-75246000D01*
G75*
G02*
X88857500Y-75495999I0J-249999D01*
G01*
G37*
G36*
G01*
X90682500Y-75495999D02*
X90682500Y-76396001D01*
G75*
G02*
X90432501Y-76646000I-249999J0D01*
G01*
X89907499Y-76646000D01*
G75*
G02*
X89657500Y-76396001I0J249999D01*
G01*
X89657500Y-75495999D01*
G75*
G02*
X89907499Y-75246000I249999J0D01*
G01*
X90432501Y-75246000D01*
G75*
G02*
X90682500Y-75495999I0J-249999D01*
G01*
G37*
%TD*%
%TO.C,C3*%
G36*
G01*
X88857500Y-77781999D02*
X88857500Y-78682001D01*
G75*
G02*
X88607501Y-78932000I-249999J0D01*
G01*
X88082499Y-78932000D01*
G75*
G02*
X87832500Y-78682001I0J249999D01*
G01*
X87832500Y-77781999D01*
G75*
G02*
X88082499Y-77532000I249999J0D01*
G01*
X88607501Y-77532000D01*
G75*
G02*
X88857500Y-77781999I0J-249999D01*
G01*
G37*
G36*
G01*
X90682500Y-77781999D02*
X90682500Y-78682001D01*
G75*
G02*
X90432501Y-78932000I-249999J0D01*
G01*
X89907499Y-78932000D01*
G75*
G02*
X89657500Y-78682001I0J249999D01*
G01*
X89657500Y-77781999D01*
G75*
G02*
X89907499Y-77532000I249999J0D01*
G01*
X90432501Y-77532000D01*
G75*
G02*
X90682500Y-77781999I0J-249999D01*
G01*
G37*
%TD*%
%TO.C,C1*%
G36*
G01*
X99017500Y-78797999D02*
X99017500Y-79698001D01*
G75*
G02*
X98767501Y-79948000I-249999J0D01*
G01*
X98242499Y-79948000D01*
G75*
G02*
X97992500Y-79698001I0J249999D01*
G01*
X97992500Y-78797999D01*
G75*
G02*
X98242499Y-78548000I249999J0D01*
G01*
X98767501Y-78548000D01*
G75*
G02*
X99017500Y-78797999I0J-249999D01*
G01*
G37*
G36*
G01*
X100842500Y-78797999D02*
X100842500Y-79698001D01*
G75*
G02*
X100592501Y-79948000I-249999J0D01*
G01*
X100067499Y-79948000D01*
G75*
G02*
X99817500Y-79698001I0J249999D01*
G01*
X99817500Y-78797999D01*
G75*
G02*
X100067499Y-78548000I249999J0D01*
G01*
X100592501Y-78548000D01*
G75*
G02*
X100842500Y-78797999I0J-249999D01*
G01*
G37*
%TD*%
M02*
